<svg width="532" height="680" viewBox="0 0 532 680" fill="none" xmlns="http://www.w3.org/2000/svg">
<path d="M0.565361 213.677L258.431 358.969V421.238L52.3015 305.156V490.81L206.288 578.063L207.102 516.178L103.223 457.753L103.63 395.102L258.431 483.124V668.777L0.501709 523.421L0.565361 213.677Z" fill="#FF7043"/>
<path d="M515.889 214.062L258.44 358.979L258.43 421.24L464.56 305.543L464.153 490.427L310.981 575.374L310.247 515.807L412.824 458.14L412.824 396.255L258.511 483.135L258.43 668.777L515.889 523.868L515.889 214.062Z" fill="#2958A3"/>
<path d="M0.563459 213.68L258.431 69.1516L309.76 97.9798L110.787 218.391L258.838 300.93L411.602 213.677L361.496 184.849L258.431 243.274L207.102 214.446L361.496 126.808L515.889 214.061L258.431 358.971L0.563459 213.68Z" fill="#F2F4F7"/>
<path d="M103.223 457.755L207.102 516.18L206.288 578.064L52.3013 490.811L103.223 457.755Z" fill="#F2F4F7"/>
<path d="M464.162 490.427L310.991 575.368L310.176 515.789L412.833 458.139L464.162 490.427Z" fill="#F2F4F7"/>
<path d="M412.823 396.255L258.392 483.165L103.629 395.101L155.773 363.583L258.43 421.239L361.902 363.198L412.823 396.255Z" fill="#F2F4F7"/>
<path d="M361.903 363.198L464.561 305.542L464.153 490.427L412.824 458.139V396.255L361.903 363.198Z" fill="#FF7043"/>
<path d="M207.097 272.257L110.962 218.29L309.754 97.9842L309.754 156.175L207.097 214.45L207.097 272.257Z" fill="#2958A3"/>
<path d="M155.774 363.583L52.3013 305.158V490.811L103.223 457.755L103.63 395.102L155.774 363.583Z" fill="#2958A3"/>
<path d="M207.102 214.445L258.431 243.276L258.838 300.933L207.102 272.258V214.445Z" fill="#FF7043"/>
<path d="M361.496 242.505L361.921 185.479L411.602 213.676L361.496 242.505Z" fill="#FF7043"/>
<path d="M258.431 243.274L361.496 184.849V242.505L258.839 300.93L258.431 243.274Z" fill="#2958A3"/>
</svg>
